<?xml version="1.0" encoding="UTF-8"?>
<svg width="19px" height="19px" viewBox="0 0 19 19" version="1.1" xmlns="http://www.w3.org/2000/svg" xmlns:xlink="http://www.w3.org/1999/xlink">
    <!-- Generator: Sketch 52.2 (67145) - http://www.bohemiancoding.com/sketch -->
    <title>icon-hamburger</title>
    <desc>Created with Sketch.</desc>
    <g id="icon-hamburger" stroke="none" stroke-width="1" fill="none" fill-rule="evenodd">
        <g id="Group">
            <rect id="Rectangle" x="0" y="0" width="19" height="19"></rect>
            <g id="if_Menu1_1031511" transform="translate(0.000000, 3.000000)" fill="#121313">
                <path d="M0.729033101,1.95155795 L18.2709669,1.95155795 C18.5937385,1.95155795 18.855698,1.64765766 18.855698,1.27320909 C18.855698,0.898760513 18.5937385,0.594860222 18.2709669,0.594860222 L0.729033101,0.594860222 C0.406261519,0.594860222 0.144301975,0.898760513 0.144301975,1.27320909 C0.144301975,1.64765766 0.406261519,1.95155795 0.729033101,1.95155795 Z" id="Path"></path>
                <path d="M18.2709669,6.02165114 L0.729033101,6.02165114 C0.406261519,6.02165114 0.144301975,6.32555143 0.144301975,6.7 C0.144301975,7.07444857 0.406261519,7.37834886 0.729033101,7.37834886 L18.2709669,7.37834886 C18.5937385,7.37834886 18.855698,7.07444857 18.855698,6.7 C18.855698,6.32555143 18.5937385,6.02165114 18.2709669,6.02165114 Z" id="Path"></path>
                <path d="M18.2709669,11.448442 L0.729033101,11.448442 C0.406261519,11.448442 0.144301975,11.7523423 0.144301975,12.1267909 C0.144301975,12.5012395 0.406261519,12.8051398 0.729033101,12.8051398 L18.2709669,12.8051398 C18.5937385,12.8051398 18.855698,12.5012395 18.855698,12.1267909 C18.855698,11.7523423 18.5937385,11.448442 18.2709669,11.448442 Z" id="Path"></path>
            </g>
        </g>
    </g>
</svg>